<svg width="142" height="31" viewBox="0 0 142 31" fill="none" xmlns="http://www.w3.org/2000/svg">
<path d="M4.27 8.78C4.81 8.02 5.55 7.39 6.49 6.89C7.45 6.37 8.54 6.11 9.76 6.11C11.18 6.11 12.46 6.46 13.6 7.16C14.76 7.86 15.67 8.86 16.33 10.16C17.01 11.44 17.35 12.93 17.35 14.63C17.35 16.33 17.01 17.84 16.33 19.16C15.67 20.46 14.76 21.47 13.6 22.19C12.46 22.91 11.18 23.27 9.76 23.27C8.54 23.27 7.46 23.02 6.52 22.52C5.6 22.02 4.85 21.39 4.27 20.63V30.92H0.0700002V6.38H4.27V8.78ZM13.06 14.63C13.06 13.63 12.85 12.77 12.43 12.05C12.03 11.31 11.49 10.75 10.81 10.37C10.15 9.99 9.43 9.8 8.65 9.8C7.89 9.8 7.17 10 6.49 10.4C5.83 10.78 5.29 11.34 4.87 12.08C4.47 12.82 4.27 13.69 4.27 14.69C4.27 15.69 4.47 16.56 4.87 17.3C5.29 18.04 5.83 18.61 6.49 19.01C7.17 19.39 7.89 19.58 8.65 19.58C9.43 19.58 10.15 19.38 10.81 18.98C11.49 18.58 12.03 18.01 12.43 17.27C12.85 16.53 13.06 15.65 13.06 14.63ZM27.782 23.27C26.182 23.27 24.742 22.92 23.462 22.22C22.182 21.5 21.172 20.49 20.432 19.19C19.712 17.89 19.352 16.39 19.352 14.69C19.352 12.99 19.722 11.49 20.462 10.19C21.222 8.89 22.252 7.89 23.552 7.19C24.852 6.47 26.302 6.11 27.902 6.11C29.502 6.11 30.952 6.47 32.252 7.19C33.552 7.89 34.572 8.89 35.312 10.19C36.072 11.49 36.452 12.99 36.452 14.69C36.452 16.39 36.062 17.89 35.282 19.19C34.522 20.49 33.482 21.5 32.162 22.22C30.862 22.92 29.402 23.27 27.782 23.27ZM27.782 19.61C28.542 19.61 29.252 19.43 29.912 19.07C30.592 18.69 31.132 18.13 31.532 17.39C31.932 16.65 32.132 15.75 32.132 14.69C32.132 13.11 31.712 11.9 30.872 11.06C30.052 10.2 29.042 9.77 27.842 9.77C26.642 9.77 25.632 10.2 24.812 11.06C24.012 11.9 23.612 13.11 23.612 14.69C23.612 16.27 24.002 17.49 24.782 18.35C25.582 19.19 26.582 19.61 27.782 19.61ZM49.3729 23L43.7329 15.92V23H39.5329V0.8H43.7329V13.43L49.3129 6.38H54.7729L47.4529 14.72L54.8329 23H49.3729ZM72.5024 14.33C72.5024 14.93 72.4624 15.47 72.3824 15.95H60.2324C60.3324 17.15 60.7524 18.09 61.4924 18.77C62.2324 19.45 63.1424 19.79 64.2224 19.79C65.7824 19.79 66.8924 19.12 67.5524 17.78H72.0824C71.6024 19.38 70.6824 20.7 69.3224 21.74C67.9624 22.76 66.2924 23.27 64.3124 23.27C62.7124 23.27 61.2724 22.92 59.9924 22.22C58.7324 21.5 57.7424 20.49 57.0224 19.19C56.3224 17.89 55.9724 16.39 55.9724 14.69C55.9724 12.97 56.3224 11.46 57.0224 10.16C57.7224 8.86 58.7024 7.86 59.9624 7.16C61.2224 6.46 62.6724 6.11 64.3124 6.11C65.8924 6.11 67.3024 6.45 68.5424 7.13C69.8024 7.81 70.7724 8.78 71.4524 10.04C72.1524 11.28 72.5024 12.71 72.5024 14.33ZM68.1524 13.13C68.1324 12.05 67.7424 11.19 66.9824 10.55C66.2224 9.89 65.2924 9.56 64.1924 9.56C63.1524 9.56 62.2724 9.88 61.5524 10.52C60.8524 11.14 60.4224 12.01 60.2624 13.13H68.1524ZM96.208 6.14C98.248 6.14 99.888 6.77 101.128 8.03C102.388 9.27 103.018 11.01 103.018 13.25V23H98.818V13.82C98.818 12.52 98.488 11.53 97.828 10.85C97.168 10.15 96.268 9.8 95.128 9.8C93.988 9.8 93.078 10.15 92.398 10.85C91.738 11.53 91.408 12.52 91.408 13.82V23H87.208V13.82C87.208 12.52 86.878 11.53 86.218 10.85C85.558 10.15 84.658 9.8 83.518 9.8C82.358 9.8 81.438 10.15 80.758 10.85C80.098 11.53 79.768 12.52 79.768 13.82V23H75.568V6.38H79.768V8.39C80.308 7.69 80.998 7.14 81.838 6.74C82.698 6.34 83.638 6.14 84.658 6.14C85.958 6.14 87.118 6.42 88.138 6.98C89.158 7.52 89.948 8.3 90.508 9.32C91.048 8.36 91.828 7.59 92.848 7.01C93.888 6.43 95.008 6.14 96.208 6.14ZM105.924 14.63C105.924 12.95 106.254 11.46 106.914 10.16C107.594 8.86 108.504 7.86 109.644 7.16C110.804 6.46 112.094 6.11 113.514 6.11C114.754 6.11 115.834 6.36 116.754 6.86C117.694 7.36 118.444 7.99 119.004 8.75V6.38H123.234V23H119.004V20.57C118.464 21.35 117.714 22 116.754 22.52C115.814 23.02 114.724 23.27 113.484 23.27C112.084 23.27 110.804 22.91 109.644 22.19C108.504 21.47 107.594 20.46 106.914 19.16C106.254 17.84 105.924 16.33 105.924 14.63ZM119.004 14.69C119.004 13.67 118.804 12.8 118.404 12.08C118.004 11.34 117.464 10.78 116.784 10.4C116.104 10 115.374 9.8 114.594 9.8C113.814 9.8 113.094 9.99 112.434 10.37C111.774 10.75 111.234 11.31 110.814 12.05C110.414 12.77 110.214 13.63 110.214 14.63C110.214 15.63 110.414 16.51 110.814 17.27C111.234 18.01 111.774 18.58 112.434 18.98C113.114 19.38 113.834 19.58 114.594 19.58C115.374 19.58 116.104 19.39 116.784 19.01C117.464 18.61 118.004 18.05 118.404 17.33C118.804 16.59 119.004 15.71 119.004 14.69ZM136.516 23L133.096 17.84L130.066 23H125.566L130.996 14.66L125.506 6.38H130.246L133.636 11.51L136.696 6.38H141.196L135.736 14.66L141.256 23H136.516Z" fill="white"/>
</svg>
